
<svg class="ebox-svg" viewBox="0 0 720 520" preserveAspectRatio="xMidYMid meet" xmlns="http://www.w3.org/2000/svg">
  <defs>
    <linearGradient id="eb-front" x1="0" y1="0" x2="0" y2="1">
      <stop offset="0" stop-color="#e8e6e2"></stop>
      <stop offset="0.5" stop-color="#c8c6c2"></stop>
      <stop offset="1" stop-color="#88857f"></stop>
    </linearGradient>
    <linearGradient id="eb-side" x1="0" y1="0" x2="1" y2="0">
      <stop offset="0" stop-color="#9a9690"></stop>
      <stop offset="1" stop-color="#5a5752"></stop>
    </linearGradient>
    <linearGradient id="eb-top" x1="0" y1="0" x2="0" y2="1">
      <stop offset="0" stop-color="#f0eee9"></stop>
      <stop offset="1" stop-color="#c8c6c2"></stop>
    </linearGradient>
    <linearGradient id="eb-dark" x1="0" y1="0" x2="0" y2="1">
      <stop offset="0" stop-color="#2a2826"></stop>
      <stop offset="1" stop-color="#0a0908"></stop>
    </linearGradient>
    <linearGradient id="eb-screen" x1="0" y1="0" x2="0" y2="1">
      <stop offset="0" stop-color="#0a0908"></stop>
      <stop offset="1" stop-color="#1a1816"></stop>
    </linearGradient>
    <radialGradient id="eb-glow" cx="0.5" cy="0.5" r="0.5">
      <stop offset="0" stop-color="#F26522" stop-opacity="0.5"></stop>
      <stop offset="1" stop-color="#F26522" stop-opacity="0"></stop>
    </radialGradient>
  </defs>

  
  <ellipse cx="360" cy="480" rx="280" ry="14" fill="#000000" opacity="0.55"></ellipse>

  
  <g class="e-part" data-part="body" style="transform: translate(var(--ex-body-x, 0px), var(--ex-body-y, 0px));">
    
    <path d="M620 130 L668 156 L668 446 L620 470 Z" fill="url(#eb-side)"></path>
    
    <path d="M68 130 L620 130 L668 156 L116 156 Z" fill="url(#eb-top)"></path>
    
    <path d="M68 130 L620 130 L620 470 L68 470 Z" fill="url(#eb-front)"></path>

    
    <g stroke="#7a7771" stroke-width="0.6" opacity="0.6">
      <line x1="148" y1="130" x2="148" y2="470"></line>
      <line x1="228" y1="130" x2="228" y2="470"></line>
      <line x1="308" y1="130" x2="308" y2="470"></line>
      <line x1="388" y1="130" x2="388" y2="470"></line>
      <line x1="468" y1="130" x2="468" y2="470"></line>
      <line x1="548" y1="130" x2="548" y2="470"></line>
    </g>

    
    <g>
      <rect x="84" y="186" width="48" height="186" fill="url(#eb-dark)" rx="2"></rect>
      <rect x="164" y="186" width="48" height="186" fill="url(#eb-dark)" rx="2"></rect>
      <rect x="244" y="186" width="48" height="186" fill="url(#eb-dark)" rx="2"></rect>
      <rect x="324" y="186" width="48" height="186" fill="url(#eb-dark)" rx="2"></rect>
      <rect x="404" y="186" width="48" height="186" fill="url(#eb-dark)" rx="2"></rect>
      <rect x="484" y="186" width="48" height="186" fill="url(#eb-dark)" rx="2"></rect>
      <rect x="564" y="186" width="48" height="186" fill="url(#eb-dark)" rx="2"></rect>
      
      <g stroke="#3a3835" stroke-width="0.5" opacity="0.85">
        <g><line x1="88" y1="200" x2="128" y2="200"></line><line x1="88" y1="208" x2="128" y2="208"></line><line x1="88" y1="216" x2="128" y2="216"></line><line x1="88" y1="224" x2="128" y2="224"></line><line x1="88" y1="232" x2="128" y2="232"></line><line x1="88" y1="240" x2="128" y2="240"></line><line x1="88" y1="248" x2="128" y2="248"></line><line x1="88" y1="256" x2="128" y2="256"></line><line x1="88" y1="264" x2="128" y2="264"></line><line x1="88" y1="272" x2="128" y2="272"></line><line x1="88" y1="280" x2="128" y2="280"></line><line x1="88" y1="288" x2="128" y2="288"></line><line x1="88" y1="296" x2="128" y2="296"></line><line x1="88" y1="304" x2="128" y2="304"></line><line x1="88" y1="312" x2="128" y2="312"></line><line x1="88" y1="320" x2="128" y2="320"></line><line x1="88" y1="328" x2="128" y2="328"></line><line x1="88" y1="336" x2="128" y2="336"></line><line x1="88" y1="344" x2="128" y2="344"></line><line x1="88" y1="352" x2="128" y2="352"></line><line x1="88" y1="360" x2="128" y2="360"></line></g>
      </g>
    </g>

    
    <g opacity="0.45">
      <rect x="168" y="190" width="40" height="178" fill="url(#eb-front)" opacity="0.04"></rect>
    </g>
    <g stroke="#3a3835" stroke-width="0.5" opacity="0.5">
      
      <line x1="84" y1="208" x2="612" y2="208"></line>
      <line x1="84" y1="224" x2="612" y2="224"></line>
      <line x1="84" y1="240" x2="612" y2="240"></line>
      <line x1="84" y1="256" x2="612" y2="256"></line>
      <line x1="84" y1="272" x2="612" y2="272"></line>
      <line x1="84" y1="288" x2="612" y2="288"></line>
      <line x1="84" y1="304" x2="612" y2="304"></line>
      <line x1="84" y1="320" x2="612" y2="320"></line>
      <line x1="84" y1="336" x2="612" y2="336"></line>
      <line x1="84" y1="352" x2="612" y2="352"></line>
      <line x1="84" y1="368" x2="612" y2="368"></line>
    </g>

    
    <g transform="translate(82,400)">
      <rect width="180" height="52" rx="3" fill="url(#eb-screen)" stroke="#3a3835" stroke-width="0.5"></rect>
      <text x="10" y="14" font-family="JetBrains Mono" font-size="6" fill="#6b6b67" letter-spacing="1.5">eBox 261 · LFP</text>
      <text x="10" y="32" font-family="Space Grotesk" font-size="18" fill="#f5f5f3" font-weight="500">2.61 MWh</text>
      <text x="10" y="44" font-family="JetBrains Mono" font-size="5" fill="#6b6b67" letter-spacing="1.5">CAPACITY · NOMINAL</text>
      <rect x="100" y="36" width="70" height="3" rx="1.5" fill="#26241f"></rect>
      <rect x="100" y="36" width="56" height="3" rx="1.5" fill="#F26522">
        
      </rect>
      <text x="100" y="20" font-family="JetBrains Mono" font-size="5" fill="#F26522" letter-spacing="1.5">SOC 78%</text>
    </g>

    
    <text x="296" y="170" font-family="Space Grotesk" font-size="14" fill="#3a3835" letter-spacing="6" font-weight="500">STARCHARGE</text>

    
    <g opacity="0.5" stroke="#5a5752" stroke-width="0.4">
      <line x1="82" y1="382" x2="612" y2="382"></line>
      <line x1="82" y1="180" x2="612" y2="180"></line>
    </g>
    
    <g fill="#3a3835">
      <rect x="350" y="408" width="36" height="6" rx="1"></rect>
      <rect x="430" y="408" width="36" height="6" rx="1"></rect>
      <rect x="510" y="408" width="36" height="6" rx="1"></rect>
    </g>
  </g>

  
  <g class="e-part" data-part="top" style="transform: translate(0px, var(--ex-top, 0px));">
    <path d="M140 120 L548 120 L596 144 L188 144 Z" fill="url(#eb-top)" opacity="0.95"></path>
    <path d="M188 144 L596 144 L596 156 L188 156 Z" fill="url(#eb-side)" opacity="0.6"></path>
    
    <g>
      <circle cx="220" cy="132" r="10" fill="url(#eb-dark)"></circle>
      <circle cx="220" cy="132" r="6" fill="#1a1816" stroke="#5a5752" stroke-width="0.4"></circle>
      <g style="transform-origin: 220px 132px; animation: spin-slow 5s linear infinite;">
        <line x1="214" y1="132" x2="226" y2="132" stroke="#5a5752" stroke-width="1"></line>
        <line x1="220" y1="126" x2="220" y2="138" stroke="#5a5752" stroke-width="1"></line>
      </g>
      <circle cx="300" cy="132" r="10" fill="url(#eb-dark)"></circle>
      <circle cx="300" cy="132" r="6" fill="#1a1816" stroke="#5a5752" stroke-width="0.4"></circle>
      <g style="transform-origin: 300px 132px; animation: spin-slow 6s linear infinite;">
        <line x1="294" y1="132" x2="306" y2="132" stroke="#5a5752" stroke-width="1"></line>
        <line x1="300" y1="126" x2="300" y2="138" stroke="#5a5752" stroke-width="1"></line>
      </g>
      <circle cx="380" cy="132" r="10" fill="url(#eb-dark)"></circle>
      <circle cx="380" cy="132" r="6" fill="#1a1816" stroke="#5a5752" stroke-width="0.4"></circle>
      <g style="transform-origin: 380px 132px; animation: spin-slow 5.4s linear infinite;">
        <line x1="374" y1="132" x2="386" y2="132" stroke="#5a5752" stroke-width="1"></line>
        <line x1="380" y1="126" x2="380" y2="138" stroke="#5a5752" stroke-width="1"></line>
      </g>
      <circle cx="460" cy="132" r="10" fill="url(#eb-dark)"></circle>
      <circle cx="460" cy="132" r="6" fill="#1a1816" stroke="#5a5752" stroke-width="0.4"></circle>
      <g style="transform-origin: 460px 132px; animation: spin-slow 7s linear infinite;">
        <line x1="454" y1="132" x2="466" y2="132" stroke="#5a5752" stroke-width="1"></line>
        <line x1="460" y1="126" x2="460" y2="138" stroke="#5a5752" stroke-width="1"></line>
      </g>
      <circle cx="540" cy="132" r="10" fill="url(#eb-dark)"></circle>
      <circle cx="540" cy="132" r="6" fill="#1a1816" stroke="#5a5752" stroke-width="0.4"></circle>
      <g style="transform-origin: 540px 132px; animation: spin-slow 5.8s linear infinite;">
        <line x1="534" y1="132" x2="546" y2="132" stroke="#5a5752" stroke-width="1"></line>
        <line x1="540" y1="126" x2="540" y2="138" stroke="#5a5752" stroke-width="1"></line>
      </g>
    </g>
  </g>

  
  <g class="e-part" data-part="cells" style="transform: translate(0px, var(--ex-cells, 0px)); opacity: var(--ex-cells-op, 0); transition: opacity 0.6s var(--ease-cinema);">
    <g transform="translate(150,260)">
      <rect width="240" height="120" rx="3" fill="#1a1816" stroke="#F26522" stroke-width="0.5"></rect>
      
      <g fill="#2a2826" stroke="#5a5752" stroke-width="0.3">
        <rect x="8" y="8" width="18" height="48" rx="2"></rect>
        <rect x="30" y="8" width="18" height="48" rx="2"></rect>
        <rect x="52" y="8" width="18" height="48" rx="2"></rect>
        <rect x="74" y="8" width="18" height="48" rx="2"></rect>
        <rect x="96" y="8" width="18" height="48" rx="2"></rect>
        <rect x="118" y="8" width="18" height="48" rx="2"></rect>
        <rect x="140" y="8" width="18" height="48" rx="2"></rect>
        <rect x="162" y="8" width="18" height="48" rx="2"></rect>
        <rect x="184" y="8" width="18" height="48" rx="2"></rect>
        <rect x="206" y="8" width="18" height="48" rx="2"></rect>
        <rect x="8" y="64" width="18" height="48" rx="2"></rect>
        <rect x="30" y="64" width="18" height="48" rx="2"></rect>
        <rect x="52" y="64" width="18" height="48" rx="2"></rect>
        <rect x="74" y="64" width="18" height="48" rx="2"></rect>
        <rect x="96" y="64" width="18" height="48" rx="2"></rect>
        <rect x="118" y="64" width="18" height="48" rx="2"></rect>
        <rect x="140" y="64" width="18" height="48" rx="2"></rect>
        <rect x="162" y="64" width="18" height="48" rx="2"></rect>
        <rect x="184" y="64" width="18" height="48" rx="2"></rect>
        <rect x="206" y="64" width="18" height="48" rx="2"></rect>
      </g>
      
      <g fill="#F26522">
        <circle cx="17" cy="12" r="0.8"></circle><circle cx="39" cy="12" r="0.8"></circle><circle cx="61" cy="12" r="0.8"></circle>
        <circle cx="83" cy="12" r="0.8"></circle><circle cx="105" cy="12" r="0.8"></circle><circle cx="127" cy="12" r="0.8"></circle>
      </g>
      <text x="8" y="-4" font-family="JetBrains Mono" font-size="6" fill="#F26522" letter-spacing="1.5">LFP CELL ARRAY · 280 Ah</text>
    </g>
  </g>

  
  <g class="callout-layer" opacity="var(--callout-op, 0)" style="transition: opacity 0.6s var(--ease-cinema);">
    <line x1="380" y1="132" x2="380" y2="60" stroke="#F26522" stroke-width="0.6"></line>
    <circle cx="380" cy="132" r="2" fill="none" stroke="#F26522" stroke-width="0.6"></circle>
    <text x="380" y="52" text-anchor="middle" font-family="JetBrains Mono" font-size="9" fill="#b8b8b4" letter-spacing="1.5">01 LIQUID-COOLED HVAC</text>
    <text x="380" y="42" text-anchor="middle" font-family="JetBrains Mono" font-size="7" fill="#6b6b67" letter-spacing="1.2">smart thermal management</text>

    <line x1="270" y1="320" x2="50" y2="320" stroke="#F26522" stroke-width="0.6"></line>
    <circle cx="270" cy="320" r="2" fill="none" stroke="#F26522" stroke-width="0.6"></circle>
    <text x="48" y="316" text-anchor="end" font-family="JetBrains Mono" font-size="9" fill="#b8b8b4" letter-spacing="1.5">02 LFP CELL ARRAY</text>
    <text x="48" y="327" text-anchor="end" font-family="JetBrains Mono" font-size="7" fill="#6b6b67" letter-spacing="1.2">280 Ah · 12k cycles</text>

    <line x1="540" y1="280" x2="690" y2="280" stroke="#F26522" stroke-width="0.6"></line>
    <circle cx="540" cy="280" r="2" fill="none" stroke="#F26522" stroke-width="0.6"></circle>
    <text x="692" y="276" font-family="JetBrains Mono" font-size="9" fill="#b8b8b4" letter-spacing="1.5">03 BMS · MULTI-LEVEL</text>
    <text x="692" y="287" font-family="JetBrains Mono" font-size="7" fill="#6b6b67" letter-spacing="1.2">cell-level monitoring</text>

    <line x1="172" y1="426" x2="40" y2="460" stroke="#F26522" stroke-width="0.6"></line>
    <circle cx="172" cy="426" r="2" fill="none" stroke="#F26522" stroke-width="0.6"></circle>
    <text x="38" y="476" text-anchor="end" font-family="JetBrains Mono" font-size="9" fill="#b8b8b4" letter-spacing="1.5">04 HMI · LOCAL CONSOLE</text>
    <text x="38" y="487" text-anchor="end" font-family="JetBrains Mono" font-size="7" fill="#6b6b67" letter-spacing="1.2">IP54 · -30 → 55°C</text>
  </g>

  
</svg>